HIERARCHY
ROOT hip
{
	OFFSET 0.000000 0.000000 0.000000 
	CHANNELS 6 Xposition Yposition Zposition Xrotation Zrotation Yrotation
	JOINT abdomen
	{
		OFFSET 0.000000 3.402643 0.000000 
		CHANNELS 3 Xrotation Zrotation Yrotation
		JOINT chest
		{
			OFFSET 0.000000 8.438565 -0.680529 
			CHANNELS 3 Xrotation Zrotation Yrotation
			JOINT neck
			{
				OFFSET 0.000000 10.207942 -0.272212 
				CHANNELS 3 Xrotation Zrotation Yrotation
				JOINT head
				{
					OFFSET 0.000000 3.130431 0.000000 
					CHANNELS 3 Xrotation Zrotation Yrotation
					End Site
					{
						OFFSET 0.000000 3.130435 0.000000 
					}
				}
			}
			JOINT lCollar
			{
				OFFSET 3.470700 6.669187 -0.816635 
				CHANNELS 3 Yrotation Zrotation Xrotation
				JOINT lShldr
				{
					OFFSET 3.198488 0.000000 0.000000 
					CHANNELS 3 Zrotation Yrotation Xrotation
					JOINT lForeArm
					{
						OFFSET 10.139888 0.000000 0.000000 
						CHANNELS 3 Yrotation Zrotation Xrotation
						JOINT lHand
						{
							OFFSET 8.370511 0.000000 0.000000 
							CHANNELS 3 Zrotation Yrotation Xrotation
							End Site
							{
								OFFSET 4.083176 0.000000 0.000000 
							}
						}
					}
				}
			}
			JOINT rCollar
			{
				OFFSET -3.470700 6.669187 -0.816635 
				CHANNELS 3 Yrotation Zrotation Xrotation
				JOINT rShldr
				{
					OFFSET -3.198488 0.000000 0.000000 
					CHANNELS 3 Zrotation Yrotation Xrotation
					JOINT rForeArm
					{
						OFFSET -10.139888 0.000000 0.000000 
						CHANNELS 3 Yrotation Zrotation Xrotation
						JOINT rHand
						{
							OFFSET -8.370511 0.000000 0.000000 
							CHANNELS 3 Zrotation Yrotation Xrotation
							End Site
							{
								OFFSET -4.083176 0.000000 0.000000 
							}
						}
					}
				}
			}
		}
	}
	JOINT lThigh
	{
		OFFSET 5.308129 -1.633274 1.361059 
		CHANNELS 3 Xrotation Zrotation Yrotation
		JOINT lShin
		{
			OFFSET -2.041588 -20.007561 0.000000 
			CHANNELS 3 Xrotation Zrotation Yrotation
			JOINT lFoot
			{
				OFFSET 0.000000 -19.190928 -1.224953 
				CHANNELS 3 Xrotation Yrotation Zrotation
				End Site
				{
					OFFSET 0.000000 -2.449906 4.627600 
				}
			}
		}
	}
	JOINT rThigh
	{
		OFFSET -5.308129 -1.633274 1.361059 
		CHANNELS 3 Xrotation Zrotation Yrotation
		JOINT rShin
		{
			OFFSET 2.041588 -20.007561 0.000000 
			CHANNELS 3 Xrotation Zrotation Yrotation
			JOINT rFoot
			{
				OFFSET 0.000000 -19.190928 -1.224953 
				CHANNELS 3 Xrotation Yrotation Zrotation
				End Site
				{
					OFFSET 0.000000 -2.449906 4.627600 
				}
			}
		}
	}
}
MOTION
Frames: 16
Frame Time: 0.011111
30.604351 53.052967 15.075276 -0.511641 7.905384 -43.109047 26.000004 4.558361 -4.485172 -20.147255 3.754466 -1.851218 -11.031504 -7.804247 -7.838188 36.916332 19.734768 -12.887886 2.424333 -4.683778 1.783845 -75.821793 -37.846725 12.398583 -50.027081 7.705902 8.161102 8.524705 12.647240 -48.557995 -2.738486 -1.140572 2.095526 68.214539 27.340651 14.725994 47.687172 -7.139681 7.247870 -8.534408 -12.637552 26.497908 11.840423 -2.068218 7.547493 15.492715 -5.920728 -2.863556 -21.512491 14.915591 2.347163 -22.141048 -10.751226 19.189257 23.999540 5.610277 4.048540 -26.459335 -23.599264 -6.842383 
30.333994 53.076729 15.165795 -0.710919 7.979362 -43.363396 26.000710 4.564775 -4.499934 -20.166618 3.685338 -1.861248 -10.948888 -7.623316 -7.893819 36.683716 19.527113 -13.034998 2.424333 -4.683778 1.783845 -75.629387 -37.752728 13.423649 -50.141045 7.726968 8.202987 8.524705 12.647240 -47.288464 -2.738486 -1.140572 2.095526 68.103897 27.293814 16.397352 47.998802 -7.222544 7.369016 -8.534408 -12.637552 29.271343 11.879117 -2.068068 7.810682 16.093508 -5.900059 -2.953847 -21.027540 14.968059 2.205130 -21.898958 -10.722122 19.024105 24.301718 5.604445 4.074597 -26.396067 -23.240311 -6.699923 
30.060635 53.094463 15.231956 -0.800789 7.986177 -43.641861 26.030804 4.660753 -4.374437 -20.185858 3.567826 -1.841199 -10.977624 -7.605770 -7.932938 36.675827 19.617868 -13.077669 2.424333 -4.683778 1.783845 -75.399498 -37.737576 13.998620 -50.256035 7.754041 8.252443 8.524705 12.647240 -46.741589 -2.738486 -1.140572 2.095526 68.086220 27.391809 16.967554 48.206589 -7.276970 7.453271 -8.534408 -12.637552 30.120953 11.686622 -1.873878 8.275222 16.935591 -5.888384 -3.097473 -20.617170 14.851565 2.037184 -21.625858 -10.487643 19.183104 24.473612 5.591560 4.126781 -26.680941 -23.009602 -6.777069 
29.773739 53.112808 15.304731 -0.880364 7.908807 -44.062885 26.084650 4.762390 -4.286404 -20.264019 3.536342 -1.826047 -11.008614 -7.674888 -7.905650 36.918983 19.772514 -12.987062 2.424333 -4.683778 1.783845 -75.344330 -37.562790 13.577623 -50.632534 7.838937 8.400806 8.524705 12.647240 -47.122452 -2.738486 -1.140572 2.095526 68.068085 27.470276 17.152414 48.382576 -7.316292 7.511654 -8.534408 -12.637552 30.033062 11.556424 -1.638531 8.790016 17.703863 -5.870756 -3.193229 -20.333082 14.750796 1.921997 -21.286512 -10.165654 19.251514 24.656170 5.581143 4.140417 -26.701265 -22.710674 -6.710491 
29.479021 53.133564 15.403071 -1.077454 7.907919 -44.571613 26.092131 4.714592 -4.181729 -20.352026 3.524479 -1.792233 -10.909737 -7.614524 -7.880996 36.971157 19.635017 -12.979724 2.424333 -4.683778 1.783845 -75.366585 -37.308384 13.103606 -51.009007 7.921607 8.561837 8.524705 12.647240 -47.093151 -2.738486 -1.140572 2.095526 67.979347 27.510941 16.953968 48.424343 -7.328240 7.529850 -8.534408 -12.637552 29.290873 11.484283 -1.539640 8.921386 18.560753 -5.852664 -3.297709 -20.670813 14.675107 2.025945 -20.904598 -10.019206 19.179031 24.798569 5.570744 4.151480 -26.500801 -22.280390 -6.473016 
29.193331 53.164837 15.471637 -1.199063 8.013399 -44.856014 25.999962 4.717663 -4.241015 -20.489054 3.559048 -1.811195 -10.773522 -7.616317 -7.849809 36.992474 19.569357 -12.919413 2.424333 -4.683778 1.783845 -75.389465 -37.073513 12.912834 -51.135017 7.950165 8.611878 8.524705 12.647240 -46.907604 -2.738486 -1.140572 2.095526 67.902130 27.619766 15.828142 48.393204 -7.321055 7.520449 -8.534408 -12.637552 27.064308 11.203683 -1.355047 8.806966 19.406105 -5.824052 -3.409316 -21.025784 14.355880 2.041861 -20.685238 -9.940525 19.000332 24.958315 5.571403 4.175341 -26.395582 -21.915789 -6.318732 
28.903124 53.181377 15.537498 -1.255116 8.080891 -45.198994 25.865664 4.741944 -4.200887 -20.537956 3.557711 -1.804462 -10.776859 -7.747010 -7.805296 37.194683 19.683706 -12.831621 2.424333 -4.683778 1.783845 -75.316223 -36.957684 12.852716 -51.083435 7.942498 8.589365 8.524705 12.647240 -46.839245 -2.738486 -1.140572 2.095526 67.893059 27.659002 16.325844 48.683746 -7.390989 7.636285 -8.534408 -12.637552 28.001810 10.863454 -1.131366 9.147118 20.382591 -5.781553 -3.559042 -20.517027 14.197980 1.834869 -20.482143 -9.784380 18.840548 25.080654 5.560621 4.184542 -26.291037 -21.517351 -6.146274 
28.611418 53.192505 15.606665 -1.370856 8.131923 -45.629665 25.789759 4.765240 -4.169089 -20.547737 3.557404 -1.805068 -10.729700 -7.806036 -7.791148 37.258686 19.618837 -12.824636 2.424333 -4.683778 1.783845 -75.254410 -36.890476 12.675619 -51.010254 7.927139 8.559609 8.524705 12.647240 -46.800179 -2.738486 -1.140572 2.095526 67.785271 27.739065 16.351311 48.829651 -7.428277 7.693338 -8.534408 -12.637552 27.562357 10.592381 -0.995208 9.762677 21.432314 -5.753498 -3.697411 -19.374413 14.333823 1.528026 -20.229872 -9.638290 18.770788 25.191376 5.555865 4.202934 -26.167761 -21.135920 -5.989500 
28.323921 53.207844 15.666810 -1.354844 8.032820 -45.985756 25.717434 5.027684 -4.097655 -20.547325 3.430271 -1.812107 -10.652606 -7.838536 -7.766373 37.263340 19.541267 -12.811167 2.424333 -4.683778 1.783845 -75.174416 -36.882221 12.375028 -50.884262 7.898271 8.509740 8.524705 12.647240 -46.575569 -2.738486 -1.140572 2.095526 67.677689 27.828886 16.874825 49.132210 -7.506195 7.817119 -8.534408 -12.637552 27.728373 10.222434 -0.624082 10.451659 22.593109 -5.704476 -3.861807 -18.248579 14.496088 1.228551 -19.889250 -9.257544 18.681637 25.331856 5.552216 4.224157 -26.121340 -20.822418 -5.876562 
28.010857 53.217461 15.773870 -1.529144 7.897417 -46.646431 25.714058 5.115161 -3.895606 -20.458868 3.277606 -1.764119 -10.708876 -7.756138 -7.753585 37.514576 19.345915 -12.813377 2.424333 -4.683778 1.783845 -75.062805 -36.815952 12.108934 -50.758289 7.869074 8.460053 8.524705 12.647240 -46.282604 -2.738486 -1.140572 2.095526 67.772018 28.032328 16.819386 49.287895 -7.540385 7.876549 -8.534408 -12.637552 27.425640 10.123435 -0.467706 11.213976 23.756754 -5.665803 -4.027496 -17.430626 14.779047 1.040496 -19.411545 -8.974251 18.636610 25.464033 5.541481 4.234199 -25.861958 -20.342924 -5.615988 
27.711033 53.227089 15.804244 -1.581972 8.108070 -46.973076 25.463808 4.970442 -4.103611 -20.547331 3.430480 -1.802344 -10.519324 -7.962139 -7.692314 37.405014 19.578249 -12.685740 2.424333 -4.683778 1.783845 -75.017509 -36.631210 11.750664 -50.653915 7.847386 8.419059 8.524705 12.647240 -46.321667 -2.738486 -1.140572 2.095526 67.827881 28.295059 16.610899 49.287895 -7.540385 7.876549 -8.534408 -12.637552 27.005720 9.514924 -0.262313 11.781402 24.998837 -5.617526 -4.188156 -16.563677 14.738841 0.773180 -19.377295 -8.915264 18.463106 25.614803 5.532644 4.274644 -25.791233 -19.842823 -5.430878 
27.396467 53.222878 15.863790 -1.775374 8.122115 -47.691261 25.401060 4.813040 -4.014472 -20.518145 3.471273 -1.762355 -10.293601 -8.283431 -7.587914 37.178719 20.008413 -12.416646 2.424333 -4.683778 1.783845 -74.925858 -36.564556 11.338519 -50.465729 7.805078 8.339754 8.524705 12.647240 -46.155647 -2.738486 -1.140572 2.095526 67.852081 28.480213 16.811569 49.506977 -7.593592 7.963142 -8.534408 -12.637552 27.240093 9.224486 -0.086639 12.557910 26.160223 -5.552210 -4.337461 -15.547612 14.875848 0.495282 -19.131996 -8.729873 18.500364 25.816511 5.526643 4.272338 -25.722767 -19.148167 -5.171734 
27.082205 53.221977 15.926340 -1.911126 8.083303 -48.369080 25.354210 4.697131 -3.822574 -20.547588 3.491366 -1.696204 -10.442063 -8.002705 -7.547363 37.564091 19.345469 -12.461989 2.424333 -4.683778 1.783845 -74.835060 -36.527187 10.877540 -50.183952 7.743719 8.229467 8.524705 12.647240 -46.067757 -2.738486 -1.140572 2.095526 67.810646 28.412579 17.645365 50.018436 -7.714076 8.168204 -8.534408 -12.637552 28.402201 8.880711 0.186761 13.311698 27.436655 -5.490177 -4.506913 -14.678703 15.036236 0.283344 -18.830299 -8.466049 18.490196 26.027908 5.511911 4.327312 -25.528019 -18.616022 -4.952480 
26.769447 53.224983 15.987389 -2.196269 8.108996 -48.988419 25.358570 4.428695 -3.912756 -20.538025 3.559999 -1.697064 -10.714598 -7.618880 -7.489806 38.035515 18.566288 -12.503093 2.424333 -4.683778 1.783845 -74.743996 -36.480053 10.254497 -49.943130 7.685222 8.132910 8.524705 12.647240 -46.224010 -2.738486 -1.140572 2.095526 67.791382 28.442226 18.484522 50.477642 -7.814945 8.347899 -8.534408 -12.637552 29.261576 8.563802 0.322547 13.825027 28.770269 -5.421649 -4.679083 -14.036862 15.086043 0.108716 -18.474321 -8.417809 18.456867 26.189096 5.502909 4.349113 -25.406843 -18.025610 -4.710146 
26.464510 53.226788 16.044226 -2.295970 8.085093 -49.525539 25.286608 4.477431 -4.011973 -20.498581 3.462915 -1.721917 -10.850383 -7.602094 -7.394421 38.262890 18.465029 -12.361341 2.424333 -4.683778 1.783845 -74.534798 -36.483955 9.663882 -49.640213 7.612039 8.006326 8.524705 12.647240 -46.331432 -2.738486 -1.140572 2.095526 67.896027 28.655247 18.727037 50.749691 -7.877236 8.467230 -8.534408 -12.637552 29.134623 8.050169 0.684035 14.371114 30.190456 -5.344197 -4.874416 -13.138197 15.149785 -0.137390 -18.180382 -8.241694 18.272530 26.318790 5.503332 4.361508 -25.293726 -17.353476 -4.442719 
26.166185 53.220478 16.097456 -2.260774 7.974352 -49.983746 25.170807 4.687929 -3.879721 -20.556707 3.285625 -1.711890 -10.793566 -7.668025 -7.370249 38.325703 18.473543 -12.319398 2.424333 -4.683778 1.783845 -74.332756 -36.390026 9.575498 -49.192413 7.507528 7.830262 8.524705 12.647240 -46.897839 -2.738486 -1.140572 2.095526 68.077744 28.749666 18.259438 50.969376 -7.923498 8.549026 -8.534408 -12.637552 28.324078 7.410620 1.240479 14.917521 31.630255 -5.246091 -5.054978 -12.129438 15.283368 -0.383505 -17.887604 -7.890241 18.089666 26.448776 5.502154 4.372540 -25.114935 -16.802614 -4.197688 
